<?xml version="1.0" encoding="utf-8"?>
<!-- Generator: Adobe Illustrator 25.0.0, SVG Export Plug-In . SVG Version: 6.00 Build 0)  -->
<svg version="1.1" id="Layer_1" xmlns="http://www.w3.org/2000/svg" xmlns:xlink="http://www.w3.org/1999/xlink" x="0px" y="0px"
	 viewBox="0 0 1366 768" style="enable-background:new 0 0 1366 768;" xml:space="preserve">
<style type="text/css">
	.st0{fill:#FF1D58;}
	.st1{fill:#FFFFFF;}
</style>
<g>
	<g>
		<path class="st0" d="M1264.62,298.39V270.9h5.75v27.48H1264.62z"/>
		<path class="st0" d="M1279.85,298.39v-22.68h-8.28v-4.8H1292v4.8h-6.4v22.68H1279.85z"/>
	</g>
</g>
<path class="st1" d="M441.81,481.4V331.28c0-17.1-13.86-30.96-30.96-30.96h-20.2v-38.36h147.1v38.36h-51.18V481.4H441.81z"/>
<path class="st1" d="M598.27,447.65c-2.87,6.76-8.05,12.05-15.54,15.84c-7.49,3.8-15.95,5.69-25.38,5.69c-8,0-15.38-1.28-22.15-3.84
	c-6.77-2.56-12.61-6.26-17.54-11.08c-4.92-4.81-8.77-10.56-11.53-17.23c-2.77-6.66-4.15-14.2-4.15-22.61v-98.13h16.53
	c12.96,0,23.46,10.5,23.46,23.46v68.83c0,18.87,8.51,28.3,25.53,28.3c9.23,0,16.66-2.66,22.3-8c5.64-5.33,8.46-12.1,8.46-20.3v-76
	c0-8.99,7.29-16.29,16.29-16.29h23.71v155.35c0,10.66-1.8,20.2-5.38,28.61c-3.59,8.41-8.51,15.48-14.77,21.23
	c-6.26,5.74-9.51,8.1-18.01,11.17c-8.51,3.08-21.72,3.83-31.36,3.83c-22.36,0-39.07-2.8-50.14-14.08
	c-11.08-11.28-16.61-26.76-16.61-46.45h37.22c0,9.02,2.62,16.09,7.84,21.23c5.23,5.12,13.08,7.69,23.53,7.69
	c3.69,0,7.18-0.77,10.46-2.3c3.28-1.54,6.2-3.69,8.77-6.46c2.56-2.77,4.61-6.2,6.15-10.31c1.54-4.1,2.31-8.61,2.31-13.53V447.65z"/>
<path class="st1" d="M753.36,471.64v-91.67c0-11.69-1.95-19.58-5.84-23.69c-3.9-4.1-10.56-6.15-20-6.15
	c-20.72,0-31.07,11.59-31.07,34.76v86.75h-39.99V320.29h38.15v0.15c0,6.83,7.81,10.35,13.21,6.16c1.76-1.37,3.61-2.6,5.56-3.7
	c7.79-4.41,17.84-6.61,30.15-6.61c7.18,0,13.84,1.08,20,3.23c6.15,2.15,11.43,5.38,15.84,9.69c4.41,4.3,7.89,9.59,10.46,15.84
	c2.56,6.26,3.85,13.49,3.85,21.69v104.9H753.36z"/>
<path class="st1" d="M906.99,471.64l-0.04-0.12c-1.69-5.39-7.98-7.78-12.81-4.84c-2.56,1.56-5.36,2.96-8.38,4.19
	c-7.8,3.18-16.82,4.77-27.07,4.77c-17.43,0-30.2-3.84-38.3-11.53c-8.1-7.69-12.15-17.69-12.15-29.99c0-10.87,1.74-19.53,5.23-25.99
	c3.48-6.46,8.31-11.54,14.46-15.23c6.15-3.69,13.48-6.41,21.99-8.15c8.51-1.74,17.79-3.33,27.84-4.77
	c10.05-1.43,16.82-3.33,20.3-5.69c3.49-2.35,5.23-6.2,5.23-11.53c0-4.92-2.3-8.76-6.92-11.53c-4.61-2.77-10.82-4.15-18.61-4.15
	c-9.23,0-15.84,2.05-19.84,6.15c-4,4.11-6.51,9.54-7.54,16.3h-37.22c0.2-7.79,1.48-14.97,3.85-21.54
	c2.35-6.56,6.15-12.2,11.38-16.92c5.23-4.72,12.04-8.35,20.46-10.92c8.41-2.56,18.66-3.84,30.76-3.84c11.89,0,21.99,1.34,30.3,4
	c8.31,2.67,14.97,6.52,20,11.53c5.02,5.03,8.66,11.28,10.92,18.77c2.26,7.49,3.38,15.95,3.38,25.38v80.46
	c0,8.4-6.81,15.21-15.21,15.21H906.99z M904.01,408.8c0.08-4.52-4.29-7.78-8.6-6.41l-0.12,0.04c-3.9,1.23-9.54,2.56-16.92,4
	c-11.49,2.26-19.38,5.13-23.69,8.61c-4.31,3.49-6.46,8.51-6.46,15.07c0,11.28,6.46,16.92,19.38,16.92c5.12,0,9.89-0.87,14.3-2.62
	c4.41-1.74,8.2-4.1,11.38-7.08c3.18-2.97,5.74-6.46,7.69-10.46c1.94-4,2.92-8.25,2.92-12.76L904.01,408.8z"/>
<path class="st1" d="M1057,366.13c-1.03-7.39-3.69-12.56-8-15.54c-4.31-2.97-11.07-4.46-20.3-4.46c-7.59,0-13.43,0.97-17.53,2.92
	c-4.1,1.95-6.15,5.18-6.15,9.69c0,4.52,2.05,7.95,6.15,10.31c4.1,2.36,10.25,4.67,18.46,6.92c8.61,2.46,16.81,4.67,24.61,6.61
	c7.79,1.95,14.66,4.05,20.61,6.31c8,3.28,14.15,7.74,18.46,13.38c4.31,5.65,6.46,13.38,6.46,23.22c0,15.8-5.59,28.1-16.76,36.91
	c-11.18,8.82-27.64,13.23-49.37,13.23c-23.38,0-41.27-4.92-53.68-14.77c-12.41-9.84-18.82-22.45-19.23-37.84h41.22
	c0,7.18,2.77,12.72,8.31,16.61c5.54,3.9,13.23,5.85,23.07,5.85c6.28,0,11.86-0.9,16.73-2.71c3.26-1.21,6.2-3.35,8.01-6.32
	c4.63-7.55,0.73-15.35-5.83-18.33c-4.69-2.13-10.17-3.98-16.45-5.55c-12.72-3.08-22.97-5.85-30.76-8.31
	c-7.8-2.46-14.36-5.43-19.69-8.92c-7.18-4.51-12.15-9.64-14.92-15.38c-2.77-5.74-4.15-12-4.15-18.77c0-6.36,1.12-12.3,3.38-17.84
	c2.25-5.54,5.95-10.31,11.07-14.31c5.13-4,11.74-7.12,19.84-9.39c8.1-2.25,17.89-3.38,29.38-3.38c21.94,0,38.09,4.21,48.45,12.61
	c10.35,8.41,16.04,20.82,17.07,37.22H1057z"/>
<path class="st1" d="M1208.93,366.13c-1.03-7.39-3.69-12.56-8-15.54c-4.31-2.97-11.07-4.46-20.3-4.46c-7.59,0-13.43,0.97-17.53,2.92
	c-4.1,1.95-6.15,5.18-6.15,9.69c0,4.52,2.05,7.95,6.15,10.31c4.1,2.36,10.25,4.67,18.46,6.92c8.61,2.46,16.81,4.67,24.61,6.61
	c7.79,1.95,14.66,4.05,20.61,6.31c8,3.28,14.15,7.74,18.46,13.38c4.31,5.65,6.46,13.38,6.46,23.22c0,15.8-5.59,28.1-16.76,36.91
	c-11.18,8.82-27.64,13.23-49.37,13.23c-23.38,0-41.28-4.92-53.68-14.77c-12.41-9.84-18.82-22.45-19.23-37.84h41.22
	c0,7.18,2.77,12.72,8.31,16.61c5.54,3.9,13.23,5.85,23.07,5.85c6.45,0,12.15-0.95,17.11-2.86c3-1.15,5.67-3.14,7.41-5.83
	c4.96-7.66,1.04-15.64-5.62-18.67c-4.69-2.13-10.17-3.98-16.45-5.55c-12.72-3.08-22.97-5.85-30.76-8.31
	c-7.8-2.46-14.36-5.43-19.69-8.92c-7.18-4.51-12.15-9.64-14.92-15.38c-2.77-5.74-4.15-12-4.15-18.77c0-6.36,1.12-12.3,3.38-17.84
	c2.25-5.54,5.95-10.31,11.07-14.31c5.12-4,11.74-7.12,19.84-9.39c8.1-2.25,17.89-3.38,29.38-3.38c21.94,0,38.09,4.21,48.45,12.61
	c10.35,8.41,16.04,20.82,17.07,37.22H1208.93z"/>
<rect x="79.38" y="385.68" transform="matrix(0.7071 0.7071 -0.7071 0.7071 332.6122 41.657)" class="st1" width="73.29" height="73.29"/>
<rect x="141.18" y="325.43" transform="matrix(0.7071 0.7071 -0.7071 0.7071 308.0786 -19.6822)" class="st1" width="73.23" height="73.23"/>
<rect x="140.11" y="446.28" transform="matrix(0.7071 0.7071 -0.7071 0.7071 393.2446 16.463)" class="st1" width="73.29" height="73.29"/>
<rect x="200.59" y="385.68" transform="matrix(0.7071 0.7071 -0.7071 0.7071 368.1154 -44.0553)" class="st1" width="73.29" height="73.29"/>
<rect x="262" y="325.43" transform="matrix(0.7071 0.7071 -0.7071 0.7071 343.4636 -105.1093)" class="st1" width="73.23" height="73.23"/>
<rect x="261.05" y="446.28" transform="matrix(0.7071 0.7071 -0.7071 0.7071 428.6685 -69.058)" class="st1" width="73.29" height="73.29"/>
<rect x="201.89" y="264.45" transform="matrix(-1.836970e-16 1 -1 -1.836970e-16 539.5701 62.5622)" class="st0" width="73.23" height="73.23"/>
</svg>
