<svg xmlns="http://www.w3.org/2000/svg" viewBox="0 0 133.18 15.9"><g id="Layer_2" data-name="Layer 2"><g id="Layer_1-2" data-name="Layer 1"><polygon points="6.18 12.31 3.2 4.98 0 4.98 4.52 15.74 7.72 15.74 12.26 4.98 9.28 4.98 6.18 12.31"/><path d="M15.1,0a2,2,0,0,0-1.42.5,1.62,1.62,0,0,0-.54,1.24A1.62,1.62,0,0,0,13.68,3a2,2,0,0,0,1.42.5A2,2,0,0,0,16.52,3a1.7,1.7,0,0,0,.54-1.29A1.51,1.51,0,0,0,16.51.47,2.12,2.12,0,0,0,15.1,0Z"/><rect x="13.54" y="4.98" width="3.12" height="10.76"/><path d="M27,10.09a5.44,5.44,0,0,0-1.27-.51,12.49,12.49,0,0,0-1.38-.28L23,9.1a2.88,2.88,0,0,1-.94-.31.66.66,0,0,1-.36-.61.83.83,0,0,1,.48-.72,3.21,3.21,0,0,1,1.56-.28,6.82,6.82,0,0,1,1.51.18A5.65,5.65,0,0,1,26.84,8L27.9,5.76A7.2,7.2,0,0,0,26,5.07a10.14,10.14,0,0,0-2.25-.25,7.22,7.22,0,0,0-2.66.44,3.85,3.85,0,0,0-1.7,1.23,2.92,2.92,0,0,0-.6,1.81,2.92,2.92,0,0,0,.35,1.5,2.49,2.49,0,0,0,.94.91,5.35,5.35,0,0,0,1.28.51,13.15,13.15,0,0,0,1.39.28c.47.07.89.13,1.27.2a3,3,0,0,1,.92.29.62.62,0,0,1,.35.57.79.79,0,0,1-.45.72,3.3,3.3,0,0,1-1.53.26,7.31,7.31,0,0,1-2-.29,8,8,0,0,1-1.77-.73l-1,2.22a7,7,0,0,0,2,.83,10.38,10.38,0,0,0,2.64.33,7.66,7.66,0,0,0,2.75-.44,4,4,0,0,0,1.73-1.21,2.77,2.77,0,0,0,.6-1.75,2.92,2.92,0,0,0-.35-1.5A2.49,2.49,0,0,0,27,10.09Z"/><path d="M37.9,10.32a3.48,3.48,0,0,1-.33,1.6,2.25,2.25,0,0,1-.89,1,2.56,2.56,0,0,1-1.28.32,2.06,2.06,0,0,1-1.61-.63,2.9,2.9,0,0,1-.57-2V5H30.1v6.08a5.68,5.68,0,0,0,.58,2.72,3.73,3.73,0,0,0,1.62,1.6,5.24,5.24,0,0,0,2.4.52A4.65,4.65,0,0,0,37,15.33,3.75,3.75,0,0,0,38,14.45v1.29h3V5H37.9Z"/><path d="M48.22,4.82a9.8,9.8,0,0,0-2.52.33,6.27,6.27,0,0,0-2.12,1l1.1,2.18a4.59,4.59,0,0,1,1.43-.73A5.38,5.38,0,0,1,47.8,7.3a2.71,2.71,0,0,1,1.87.56,2,2,0,0,1,.61,1.56v0H47.82a7.38,7.38,0,0,0-2.68.4,2.83,2.83,0,0,0-2,2.8,2.91,2.91,0,0,0,.49,1.66,3.42,3.42,0,0,0,1.39,1.17,4.86,4.86,0,0,0,2.14.43,4.36,4.36,0,0,0,2.32-.55,2.84,2.84,0,0,0,1-1v1.35H53.4V9.6A4.49,4.49,0,0,0,52,6,5.73,5.73,0,0,0,48.22,4.82Zm1.17,8.62A2.84,2.84,0,0,1,48,13.8a2.08,2.08,0,0,1-1.27-.35,1.13,1.13,0,0,1-.47-.95,1.16,1.16,0,0,1,.41-.9,2.35,2.35,0,0,1,1.51-.36h2.14v1.1A2,2,0,0,1,49.39,13.44Z"/><rect x="56.22" y="0.9" width="3.12" height="14.84"/><path d="M71.66,7.75a2.93,2.93,0,0,1,1.42-.35,2.78,2.78,0,0,1,1.36.35A2.92,2.92,0,0,1,75.5,8.86l2.4-1.32a4.11,4.11,0,0,0-1.83-2,6,6,0,0,0-3-.71A6.46,6.46,0,0,0,70,5.54a5.42,5.42,0,0,0-2.12,2,5.35,5.35,0,0,0-.77,2.86,5.4,5.4,0,0,0,.77,2.86,5.3,5.3,0,0,0,2.12,2,6.58,6.58,0,0,0,3.09.71,5.94,5.94,0,0,0,3-.72,4.22,4.22,0,0,0,1.83-2l-2.4-1.32A2.91,2.91,0,0,1,74.44,13a2.78,2.78,0,0,1-1.36.35A2.93,2.93,0,0,1,71.66,13a2.5,2.5,0,0,1-1-1,3.15,3.15,0,0,1-.38-1.61,3.08,3.08,0,0,1,.38-1.6A2.54,2.54,0,0,1,71.66,7.75Z"/><path d="M87.9,5.53a6.51,6.51,0,0,0-3.06-.71,6.33,6.33,0,0,0-3,.71,5.27,5.27,0,0,0-2.09,2A5.38,5.38,0,0,0,79,10.36a5.32,5.32,0,0,0,2.85,4.82,6.23,6.23,0,0,0,3,.72,6.4,6.4,0,0,0,3.06-.72A5.59,5.59,0,0,0,90,7.49,5.36,5.36,0,0,0,87.9,5.53ZM87.23,12a2.63,2.63,0,0,1-1,1,2.83,2.83,0,0,1-1.41.35A2.77,2.77,0,0,1,83.46,13a2.46,2.46,0,0,1-1-1,3.26,3.26,0,0,1-.37-1.6,3.18,3.18,0,0,1,.37-1.6,2.47,2.47,0,0,1,1-1,2.82,2.82,0,0,1,1.4-.35,2.79,2.79,0,0,1,1.39.35,2.65,2.65,0,0,1,1,1,3.29,3.29,0,0,1,.37,1.6A3.37,3.37,0,0,1,87.23,12Z"/><path d="M95.82,6.41V5h-3V15.74H96V10.66a3,3,0,0,1,.78-2.28,2.94,2.94,0,0,1,2.1-.74l.33,0,.35.06V4.82a5.24,5.24,0,0,0-2.58.59A3.27,3.27,0,0,0,95.82,6.41Z"/><path d="M106.28,13.42a1.23,1.23,0,0,1-1-.38A1.48,1.48,0,0,1,105,12V7.62h2.66V5.22H105V2.6h-3.14V5.22h-1.66v2.4h1.66V12a3.72,3.72,0,0,0,1.06,2.89,4.19,4.19,0,0,0,3,1,5.81,5.81,0,0,0,1.39-.17,3.17,3.17,0,0,0,1.13-.51l-.82-2.2A2,2,0,0,1,106.28,13.42Z"/><path d="M118,5.5a6,6,0,0,0-2.85-.68,6.1,6.1,0,0,0-3,.71,5,5,0,0,0-2,2,5.56,5.56,0,0,0-.73,2.86,5.24,5.24,0,0,0,2.9,4.82,7.59,7.59,0,0,0,5.8.27A4.94,4.94,0,0,0,120,14.16l-1.66-1.8a3.61,3.61,0,0,1-1.19.78,4.08,4.08,0,0,1-1.49.26,3.73,3.73,0,0,1-1.68-.35,2.56,2.56,0,0,1-1.1-1,2.42,2.42,0,0,1-.31-.8h8.13c0-.13,0-.28,0-.43s0-.29,0-.41a5.75,5.75,0,0,0-.74-3A5.15,5.15,0,0,0,118,5.5Zm-4.24,2a3,3,0,0,1,2.81,0,2.51,2.51,0,0,1,.94,1,2.74,2.74,0,0,1,.27.92H112.5a2.69,2.69,0,0,1,.28-.91A2.36,2.36,0,0,1,113.73,7.53Z"/><polygon points="133.18 15.74 129.01 10.23 133.02 4.98 129.68 4.98 127.36 8.12 125.08 4.98 121.6 4.98 125.58 10.33 121.42 15.74 124.86 15.74 127.28 12.45 129.64 15.74 133.18 15.74"/></g></g></svg>