<svg xmlns="http://www.w3.org/2000/svg" xmlns:xlink="http://www.w3.org/1999/xlink" viewBox="0 0 133.18 79.67"><defs><style>.cls-1{fill:#666;}.cls-2,.cls-4{fill:none;stroke-linecap:round;stroke-miterlimit:10;stroke-width:3px;}.cls-2{stroke:url(#New_Gradient_Swatch_1);}.cls-3{fill:url(#linear-gradient);}.cls-4{stroke:url(#linear-gradient-2);}</style><linearGradient id="New_Gradient_Swatch_1" x1="66.84" y1="22.57" x2="66.84" y2="40.35" gradientUnits="userSpaceOnUse"><stop offset="0" stop-color="#00a99d"/><stop offset="0.09" stop-color="#0da0a2"/><stop offset="0.27" stop-color="#2e89ae"/><stop offset="0.5" stop-color="#6562c1"/><stop offset="0.78" stop-color="#af2edc"/><stop offset="1" stop-color="#ee02f3"/></linearGradient><linearGradient id="linear-gradient" x1="77.4" y1="29.86" x2="77.4" y2="33.44" xlink:href="#New_Gradient_Swatch_1"/><linearGradient id="linear-gradient-2" x1="77.4" y1="0" x2="77.4" y2="56.48" xlink:href="#New_Gradient_Swatch_1"/></defs><g id="Layer_2" data-name="Layer 2"><g id="Layer_1-2" data-name="Layer 1"><path class="cls-1" d="M15.15,79.51,10.64,68.75h3.19L17.6,78H16l3.92-9.26h3L18.35,79.51Z" transform="translate(-10.64)"/><path class="cls-1" d="M25.73,67.25a2.05,2.05,0,0,1-1.42-.5,1.64,1.64,0,0,1-.54-1.24,1.61,1.61,0,0,1,.54-1.24,2,2,0,0,1,1.42-.5,2,2,0,0,1,1.41.47,1.5,1.5,0,0,1,.55,1.21,1.7,1.7,0,0,1-.54,1.29A2,2,0,0,1,25.73,67.25ZM24.18,79.51V68.75h3.11V79.51Z" transform="translate(-10.64)"/><path class="cls-1" d="M33.81,79.67a10.38,10.38,0,0,1-2.64-.33,7,7,0,0,1-2-.83l1-2.22a8.48,8.48,0,0,0,1.77.73,7.37,7.37,0,0,0,2,.29,3.3,3.3,0,0,0,1.53-.26.81.81,0,0,0,.45-.72.59.59,0,0,0-.35-.57,2.77,2.77,0,0,0-.92-.29c-.38-.07-.8-.14-1.27-.2A13.68,13.68,0,0,1,32,75a5.52,5.52,0,0,1-1.28-.51,2.64,2.64,0,0,1-.94-.91A3.18,3.18,0,0,1,30,70.26,3.85,3.85,0,0,1,31.71,69a7.06,7.06,0,0,1,2.66-.44,10.14,10.14,0,0,1,2.25.25,6.46,6.46,0,0,1,1.91.69l-1.06,2.22a5.24,5.24,0,0,0-1.55-.62A6.75,6.75,0,0,0,34.41,71a3.21,3.21,0,0,0-1.56.28.81.81,0,0,0-.48.72.67.67,0,0,0,.36.61,3,3,0,0,0,.94.31l1.28.2a10.54,10.54,0,0,1,1.38.28,5.27,5.27,0,0,1,1.27.51,2.42,2.42,0,0,1,.94.91A3.07,3.07,0,0,1,38.29,78a4,4,0,0,1-1.73,1.21A7.66,7.66,0,0,1,33.81,79.67Z" transform="translate(-10.64)"/><path class="cls-1" d="M45.33,79.67a5.43,5.43,0,0,1-2.4-.52,3.73,3.73,0,0,1-1.62-1.6,5.8,5.8,0,0,1-.58-2.72V68.75h3.12v5.6a2.92,2.92,0,0,0,.57,2A2.06,2.06,0,0,0,46,77a2.56,2.56,0,0,0,1.28-.32,2.3,2.3,0,0,0,.89-1,3.48,3.48,0,0,0,.33-1.6V68.75h3.1V79.51h-3v-3l.54.88a3.8,3.8,0,0,1-1.6,1.69A4.65,4.65,0,0,1,45.33,79.67Z" transform="translate(-10.64)"/><path class="cls-1" d="M57.83,79.67a5,5,0,0,1-2.14-.43,3.42,3.42,0,0,1-1.39-1.17,3.13,3.13,0,0,1,0-3.33,3,3,0,0,1,1.49-1.13,7.42,7.42,0,0,1,2.68-.4h2.84V75H58.77a2.36,2.36,0,0,0-1.51.36,1.16,1.16,0,0,0-.41.9,1.14,1.14,0,0,0,.47,1,2.12,2.12,0,0,0,1.27.35A2.81,2.81,0,0,0,60,77.21a2,2,0,0,0,.89-1.1l.48,1.46a2.84,2.84,0,0,1-1.24,1.55A4.45,4.45,0,0,1,57.83,79.67Zm3.28-.16v-2.1l-.2-.46V73.19a2,2,0,0,0-.61-1.56,2.65,2.65,0,0,0-1.87-.56,5.48,5.48,0,0,0-1.69.27,4.7,4.7,0,0,0-1.43.73l-1.1-2.18a6.36,6.36,0,0,1,2.12-1,9.8,9.8,0,0,1,2.52-.33,5.66,5.66,0,0,1,3.82,1.16A4.49,4.49,0,0,1,64,73.37v6.14Z" transform="translate(-10.64)"/><path class="cls-1" d="M66.85,79.51V64.67H70V79.51Z" transform="translate(-10.64)"/><path class="cls-1" d="M83.73,79.67A6.58,6.58,0,0,1,80.64,79a5.31,5.31,0,0,1-2.89-4.83,5.32,5.32,0,0,1,.77-2.86,5.49,5.49,0,0,1,2.12-2,6.46,6.46,0,0,1,3.09-.72,5.88,5.88,0,0,1,3,.71,4.06,4.06,0,0,1,1.83,2l-2.4,1.32a2.78,2.78,0,0,0-1.06-1.11,2.63,2.63,0,0,0-1.36-.35,2.85,2.85,0,0,0-1.42.35,2.67,2.67,0,0,0-1,1,3.18,3.18,0,0,0-.38,1.6,3.28,3.28,0,0,0,.38,1.61,2.77,2.77,0,0,0,1,1,3,3,0,0,0,1.42.35,2.73,2.73,0,0,0,1.36-.35,2.84,2.84,0,0,0,1.06-1.13L88.53,77a4.17,4.17,0,0,1-1.83,2A5.89,5.89,0,0,1,83.73,79.67Z" transform="translate(-10.64)"/><path class="cls-1" d="M95.47,79.67a6.28,6.28,0,0,1-3-.72,5.59,5.59,0,0,1-2.09-7.69,5.33,5.33,0,0,1,2.09-2,6.28,6.28,0,0,1,3-.71,6.34,6.34,0,0,1,3.06.71,5.16,5.16,0,0,1,2.1,2A5.45,5.45,0,0,1,98.53,79,6.34,6.34,0,0,1,95.47,79.67Zm0-2.56a2.78,2.78,0,0,0,1.41-.35,2.56,2.56,0,0,0,1-1,3.29,3.29,0,0,0,.37-1.6,3.18,3.18,0,0,0-.37-1.6,2.51,2.51,0,0,0-1-1,2.66,2.66,0,0,0-1.39-.35,2.75,2.75,0,0,0-1.4.35,2.6,2.6,0,0,0-1,1,3.29,3.29,0,0,0-.37,1.6,3.4,3.4,0,0,0,.37,1.6,2.66,2.66,0,0,0,1,1A2.83,2.83,0,0,0,95.47,77.11Z" transform="translate(-10.64)"/><path class="cls-1" d="M103.47,79.51V68.75h3v3.06l-.42-.9a3.47,3.47,0,0,1,1.54-1.73,5.18,5.18,0,0,1,2.58-.59v2.9a2.14,2.14,0,0,0-.35-.06,1.83,1.83,0,0,0-.33,0,2.9,2.9,0,0,0-2.1.74,3,3,0,0,0-.78,2.28v5.08Z" transform="translate(-10.64)"/><path class="cls-1" d="M110.81,71.39V69h7.46v2.4Zm5.68,8.28a4.27,4.27,0,0,1-3-1,3.75,3.75,0,0,1-1.06-2.89V66.37h3.14v9.38a1.54,1.54,0,0,0,.35,1.06,1.25,1.25,0,0,0,1,.38,2.06,2.06,0,0,0,1.28-.4L119,79a3.37,3.37,0,0,1-1.13.51A5.75,5.75,0,0,1,116.49,79.67Z" transform="translate(-10.64)"/><path class="cls-1" d="M126.15,79.67a6.89,6.89,0,0,1-3.22-.72,5.37,5.37,0,0,1-2.14-2,5.47,5.47,0,0,1-.76-2.85,5.66,5.66,0,0,1,.73-2.86,5.16,5.16,0,0,1,2-2,6,6,0,0,1,3-.71,5.83,5.83,0,0,1,2.85.68,5,5,0,0,1,2,1.92,5.63,5.63,0,0,1,.74,3,3.1,3.1,0,0,1,0,.41c0,.15,0,.29,0,.43h-8.74V73.19h7.1l-1.22.54a2.74,2.74,0,0,0-.32-1.46,2.37,2.37,0,0,0-.94-1,2.65,2.65,0,0,0-1.4-.35,2.73,2.73,0,0,0-1.41.35,2.49,2.49,0,0,0-1,1,3.15,3.15,0,0,0-.34,1.49v.48a3,3,0,0,0,.4,1.56,2.75,2.75,0,0,0,1.1,1,3.79,3.79,0,0,0,1.68.35,4,4,0,0,0,1.49-.26,3.83,3.83,0,0,0,1.19-.78l1.66,1.8a4.79,4.79,0,0,1-1.86,1.29A6.83,6.83,0,0,1,126.15,79.67Z" transform="translate(-10.64)"/><path class="cls-1" d="M132.05,79.51l4.84-6.3-.06,1.72-4.6-6.18h3.48l2.92,4-1.32,0,3-4.06h3.34L139,74.85l0-1.68,4.8,6.34h-3.54l-3.06-4.28,1.3.18-3,4.1Z" transform="translate(-10.64)"/><circle class="cls-2" cx="66.84" cy="31.46" r="7.39"/><path class="cls-3" d="M79.67,31.17a2.27,2.27,0,1,1-4.54,0,2.14,2.14,0,0,1,.43-1.31,2,2,0,0,0,3.69,0A2.2,2.2,0,0,1,79.67,31.17Z" transform="translate(-10.64)"/><path class="cls-4" d="M54.43,46.24a16.34,16.34,0,0,0,15.1-1.91m12.32-27.4a10.43,10.43,0,0,0,.09-1.38,11.32,11.32,0,0,0-4.61-8.86m25.59,15.14a16.73,16.73,0,0,0,.58-4.39M63.89,15a16.41,16.41,0,0,0-3.73-.43,16.21,16.21,0,0,0-8,2.12m25.21-10A14.64,14.64,0,0,1,88.44,1.5c8.32,0,15.06,7.14,15.06,15.94,4.21,3,7.47,8,7.47,13.5a16.33,16.33,0,0,1-10.6,15.3C100.08,51.1,94.52,55,87.71,55A14.64,14.64,0,0,1,77.4,51.16,14.64,14.64,0,0,1,67.09,55c-6.81,0-12.36-3.88-12.66-8.74a16.33,16.33,0,0,1-2.31-29.51,11.5,11.5,0,0,1-.07-1.18c0-6.78,6.69-12.27,15-12.27A16.72,16.72,0,0,1,77.33,6.69m7.94,37.64a16.34,16.34,0,0,0,15.1,1.91" transform="translate(-10.64)"/></g></g></svg>