<svg xmlns="http://www.w3.org/2000/svg" viewBox="0 0 70.14 56.48"><g id="Layer_2" data-name="Layer 2"><g id="Layer_1-2" data-name="Layer 1"><path d="M35.14,22.57A8.89,8.89,0,1,0,44,31.46,8.9,8.9,0,0,0,35.14,22.57Zm0,14.78A5.89,5.89,0,1,1,41,31.46,5.9,5.9,0,0,1,35.14,37.35Z"/><path d="M35.07,31a2,2,0,0,1-1.84-1.16,2.14,2.14,0,0,0-.43,1.31,2.27,2.27,0,1,0,4.54,0,2.2,2.2,0,0,0-.42-1.31A2,2,0,0,1,35.07,31Z"/><path d="M62.65,16.67C62.27,7.41,55,0,46.11,0a16.15,16.15,0,0,0-11.3,4.7A18.54,18.54,0,0,0,24.67,1.78C15.6,1.78,8.22,8,8.22,15.55c0,.13,0,.25,0,.37A17.83,17.83,0,0,0,10.72,47.3c.95,5.22,6.89,9.18,14,9.18a16.82,16.82,0,0,0,10.31-3.32,16.82,16.82,0,0,0,10.31,3.32c7.16,0,13.1-4,14-9.18A17.93,17.93,0,0,0,70.14,30.94,18.42,18.42,0,0,0,62.65,16.67ZM57.52,44.83h0l0,0A14.86,14.86,0,0,1,43.8,43.1a1.5,1.5,0,0,0-1.72,2.46,17.87,17.87,0,0,0,13.8,2.86c-1.58,2.93-5.74,5.06-10.5,5.06a13.21,13.21,0,0,1-9.25-3.38L35.07,49,34,50.1a13.21,13.21,0,0,1-9.25,3.38c-4.75,0-8.91-2.13-10.5-5.06a17.87,17.87,0,0,0,13.8-2.86,1.5,1.5,0,1,0-1.72-2.46,14.86,14.86,0,0,1-13.66,1.76l0,0h0A14.83,14.83,0,0,1,10.53,18l.08-.05A14.94,14.94,0,0,1,21.22,16.5a1.5,1.5,0,0,0,.68-2.92,18,18,0,0,0-10.6.77C12.05,9,17.76,4.78,24.67,4.78a15.22,15.22,0,0,1,9.4,3.09h0a9.79,9.79,0,0,1,4,7.67A9.11,9.11,0,0,1,38,16.73a1.5,1.5,0,1,0,3,.4,11.76,11.76,0,0,0,.1-1.58,12.58,12.58,0,0,0-3.94-9A13.09,13.09,0,0,1,46.11,3c7.48,0,13.56,6.48,13.56,14.44a15.3,15.3,0,0,1-.53,4,1.5,1.5,0,0,0,2.9.78,17.8,17.8,0,0,0,.39-1.79,15,15,0,0,1,4.71,10.51A14.89,14.89,0,0,1,57.52,44.83Z"/></g></g></svg>